<?xml version="1.0" encoding="utf-8"?>
<!-- Generator: Adobe Illustrator 14.0.0, SVG Export Plug-In . SVG Version: 6.00 Build 43363)  -->
<!DOCTYPE svg PUBLIC "-//W3C//DTD SVG 1.1//EN" "http://www.w3.org/Graphics/SVG/1.1/DTD/svg11.dtd">
<svg version="1.1" id="圖層_1" xmlns="http://www.w3.org/2000/svg" xmlns:xlink="http://www.w3.org/1999/xlink" x="0px" y="0px"
	 width="58px" height="58px" viewBox="0 0 58 58" enable-background="new 0 0 58 58" xml:space="preserve">
<title>Combined Shape</title>
<desc>Created with Sketch.</desc>
<g>
	<linearGradient id="SVGID_1_" gradientUnits="userSpaceOnUse" x1="29.0005" y1="58" x2="29.0005" y2="4.882813e-004">
		<stop  offset="0" style="stop-color:#27B0B0"/>
		<stop  offset="1" style="stop-color:#50B9C0"/>
	</linearGradient>
	<path fill="url(#SVGID_1_)" d="M29,0C12.984,0,0,12.984,0,29c0,16.016,12.984,29,29,29c16.016,0,29-12.984,29-29
		C58,12.984,45.016,0,29,0z M13.608,13.147h6.35V12.24h-5.394V11.3h11.974v0.94h-5.393v0.907h6.367v3.43h-1.155v-2.572h-5.212v4.602
		h-1.188v-4.602H14.73v2.572h-1.122V13.147z M19.035,16.528l0.165,0.841c-1.369,0.561-2.754,1.121-3.909,1.566l-0.462-0.989
		C15.917,17.616,17.485,17.071,19.035,16.528z M15.389,15.076l0.462-0.692c1.056,0.297,2.491,0.825,3.25,1.171l-0.462,0.792
		C17.897,15.968,16.495,15.407,15.389,15.076z M15.109,19.398h10.853v0.94H15.109V19.398z M21.888,17.303l0.413-0.759
		c1.352,0.38,3.15,1.007,4.107,1.485l-0.413,0.857C25.071,18.408,23.274,17.715,21.888,17.303z M21.838,15.637
		c1.04-0.264,2.556-0.841,3.431-1.22l0.593,0.791c-1.022,0.462-2.49,0.891-3.546,1.122L21.838,15.637z M13.228,21.509h14.663v0.973
		h-4.123c1.204,0.891,2.606,2.095,3.332,2.936l-1.072,0.561c-0.198-0.264-0.495-0.594-0.809-0.907
		c-8.609,0.396-9.434,0.429-9.995,0.627c-0.066-0.264-0.248-0.858-0.379-1.188c0.264-0.017,0.561-0.214,0.923-0.495
		c0.264-0.198,1.04-0.792,1.732-1.534h-4.272V21.509z M27.364,45.666c-1.253-0.741-2.259-1.797-3.068-3.117
		c-0.973,1.303-2.227,2.358-3.843,3.2c-0.132-0.298-0.495-0.842-0.742-1.106c1.715-0.807,2.985-1.896,3.925-3.313
		c-0.643-1.335-1.121-2.886-1.5-4.568c-0.313,0.726-0.709,1.369-1.105,1.947c-0.182-0.199-0.577-0.562-0.891-0.776
		c-0.676,0.793-1.616,1.584-2.49,2.178v0.658c1.056-0.132,2.144-0.278,3.233-0.429l0.016,1.073
		c-1.088,0.148-2.177,0.296-3.249,0.462v2.522c0,0.627-0.132,0.924-0.594,1.105c-0.445,0.18-1.154,0.18-2.194,0.18
		c-0.065-0.328-0.231-0.74-0.396-1.07c0.825,0.031,1.517,0.017,1.732,0.017c0.231-0.017,0.28-0.065,0.28-0.248v-2.356
		c-1.22,0.164-2.342,0.33-3.282,0.444l-0.148-1.123c0.94-0.114,2.128-0.263,3.431-0.409v-1.14c0.627-0.362,1.336-0.94,1.88-1.469
		h-2.572c-0.644,0.496-1.304,0.957-1.996,1.353c-0.182-0.229-0.627-0.709-0.875-0.938c1.335-0.677,2.556-1.567,3.595-2.605h-3.479
		v-1.09h2.853v-1.633h-2.161v-1.056h2.161v-1.731h1.138v1.731h1.699v1.006c0.445-0.741,0.841-1.518,1.171-2.342l1.138,0.33
		c-0.561,1.353-1.253,2.572-2.062,3.693h1.996v1.09h-2.87c-0.379,0.411-0.758,0.824-1.171,1.203h2.409l0.23-0.064l0.577,0.428
		c1.254-1.715,2.095-4.338,2.573-7.075l1.221,0.198c-0.182,0.988-0.396,1.945-0.66,2.854h4.815v1.155H27.05v-0.002
		c-0.396,2.638-1.006,4.798-2.012,6.563c0.808,1.401,1.864,2.539,3.183,3.232C27.925,44.874,27.545,45.318,27.364,45.666z
		 M35.719,11.645h1.139v2.82h2.275v-3.612h1.172v3.612h2.49v-2.82h1.171v3.91h-8.247V11.645z M32.336,11.002
		c0.462,0.743,0.939,1.732,1.155,2.375l-1.089,0.396c-0.197-0.66-0.676-1.682-1.088-2.44L32.336,11.002z M29.698,13.905h5.491v1.138
		h-5.491V13.905z M31.908,21.724l-0.989,0.165c-0.05-1.617-0.362-4.025-0.709-5.888l0.938-0.166
		C31.529,17.715,31.841,20.09,31.908,21.724z M32.635,22.351c0.396-1.765,0.791-4.667,0.973-6.664l1.072,0.198
		c-0.279,1.963-0.693,4.486-1.089,6.235l1.584-0.396l0.132,1.138c-1.914,0.495-3.91,1.023-5.459,1.386l-0.266-1.188
		C30.408,22.878,31.463,22.614,32.635,22.351z M35.998,30.807l1.171-0.348c0.296,0.495,0.644,1.139,0.841,1.617h6.104v2.902h-1.236
		v-1.766H31.199v1.766h-1.188v-2.901h6.629C36.46,31.664,36.213,31.186,35.998,30.807z M31.678,35.736v-1.073h10.87v1.073h-5.955
		c-0.874,0.873-1.831,1.699-2.788,2.392l6.367-0.444c-0.445-0.412-0.906-0.81-1.336-1.156l0.907-0.576
		c1.12,0.875,2.54,2.127,3.231,2.986l-0.955,0.676c-0.231-0.297-0.545-0.676-0.94-1.057c-7.817,0.611-8.593,0.659-9.104,0.875
		c-0.065-0.248-0.23-0.81-0.363-1.123c0.313-0.049,0.693-0.264,1.123-0.594c0.361-0.247,1.353-1.038,2.273-1.979H31.678z
		 M44.346,45.22H29.813v-1.104h6.614v-2.179h-5.112V40.85h5.112v-1.731h1.236v1.731h5.229v1.088h-5.229v2.18h6.683V45.22z
		 M44.508,17.847H40.4v0.001c-0.164,0.511-0.312,1.039-0.478,1.5h4.239v5.426c0,0.512-0.082,0.775-0.43,0.957
		c-0.33,0.181-0.791,0.197-1.5,0.197c-0.051-0.313-0.215-0.709-0.362-0.989c0.462,0.016,0.89,0.016,1.006,0
		c0.147,0,0.181-0.05,0.181-0.182v-4.354h-1.5v5.278h-0.974v-5.278h-1.519v5.328h-0.972v-5.328h-1.452v5.476h-1.104v-6.532h3.183
		c0.1-0.462,0.199-1.006,0.297-1.5h-4.009v-1.088h9.501V17.847z"/>
	<linearGradient id="SVGID_2_" gradientUnits="userSpaceOnUse" x1="24.354" y1="40.042" x2="24.354" y2="34.8311">
		<stop  offset="0" style="stop-color:#27B0B0"/>
		<stop  offset="1" style="stop-color:#50B9C0"/>
	</linearGradient>
	<path fill="url(#SVGID_2_)" d="M22.911,34.831c0.313,1.897,0.791,3.677,1.451,5.211c0.693-1.451,1.121-3.185,1.435-5.211H22.911z"
		/>
	<linearGradient id="SVGID_3_" gradientUnits="userSpaceOnUse" x1="20.5674" y1="24.4448" x2="20.5674" y2="22.4819">
		<stop  offset="0" style="stop-color:#27B0B0"/>
		<stop  offset="1" style="stop-color:#50B9C0"/>
	</linearGradient>
	<path fill="url(#SVGID_3_)" d="M24.213,24.148c-0.528-0.462-1.088-0.924-1.6-1.303l0.725-0.363h-4.206
		c-0.693,0.709-1.452,1.385-2.21,1.963L24.213,24.148z"/>
	<linearGradient id="SVGID_4_" gradientUnits="userSpaceOnUse" x1="17.855" y1="35.0439" x2="17.855" y2="33.4111">
		<stop  offset="0" style="stop-color:#27B0B0"/>
		<stop  offset="1" style="stop-color:#50B9C0"/>
	</linearGradient>
	<path fill="url(#SVGID_4_)" d="M18.688,33.411h-1.666v1.633h0.495C17.946,34.532,18.325,33.973,18.688,33.411z"/>
</g>
<path display="none" fill="#FFFFFF" d="M40.581,16.111c-0.147,0-0.294,0.017-0.44,0.022c-1.154-3.515-4.459-6.056-8.359-6.056
	c-3.73,0-6.912,2.325-8.193,5.601c-0.202-0.014-0.403-0.03-0.609-0.03c-4.228,0-7.758,2.983-8.605,6.959
	c-0.066-0.002-0.13-0.01-0.197-0.01c-4.861,0-8.802,3.941-8.802,8.803c0,4.386,3.213,8.012,7.412,8.68v0.12h27.795
	c6.652,0,12.045-5.392,12.045-12.044C52.626,21.503,47.234,16.111,40.581,16.111z"/>
</svg>
